PathFileType	4	(X/Y/Z)	C:\Users\Basilio\Documents\Thesis Gigler\squatting_fais\c3dfiles\041\SLS_pre_back2\markers_experimental.trc
DataRate	CameraRate	NumFrames	NumMarkers	Units	OrigDataRate	OrigDataStartFrame	OrigNumFrames
200.000000	200.000000	4	63	mm	200.000000	1377	1837
Frame#	Time	FHD			LBHD			RBHD			C7			T10			CLAV			LSHO			LUUPA			LMUPA			LDUPA			LLEP			LMEP			LRAD			LUL			LRFIN			RSHO			RUPA1			RMUPA			RDUPA			RLEP			RMEP			RRAD			RUL			RUFIN			LASI			RASI			USACR			LSACR			RSACR			LTHI1			LTHI2			LTHI3			LTHI4			LLFC			LMFC			LTIB1			LTIB2			LTIB3			LTIB4			LLMAL			LMMAL			LHEE			LMT1			LMT2			LMT5			RTHI			RTHI2			RTHI3			RTHI4			RLFC			RMFC			RTIB1			RTIB2			RTIB3			RTIB4			RLMAL			RMMAL			RHEE			RMT1			RMT2			RMT5			*61			*62			
		X1	Y1	Z1	X2	Y2	Z2	X3	Y3	Z3	X4	Y4	Z4	X5	Y5	Z5	X6	Y6	Z6	X7	Y7	Z7	X8	Y8	Z8	X9	Y9	Z9	X10	Y10	Z10	X11	Y11	Z11	X12	Y12	Z12	X13	Y13	Z13	X14	Y14	Z14	X15	Y15	Z15	X16	Y16	Z16	X17	Y17	Z17	X18	Y18	Z18	X19	Y19	Z19	X20	Y20	Z20	X21	Y21	Z21	X22	Y22	Z22	X23	Y23	Z23	X24	Y24	Z24	X25	Y25	Z25	X26	Y26	Z26	X27	Y27	Z27	X28	Y28	Z28	X29	Y29	Z29	X30	Y30	Z30	X31	Y31	Z31	X32	Y32	Z32	X33	Y33	Z33	X34	Y34	Z34	X35	Y35	Z35	X36	Y36	Z36	X37	Y37	Z37	X38	Y38	Z38	X39	Y39	Z39	X40	Y40	Z40	X41	Y41	Z41	X42	Y42	Z42	X43	Y43	Z43	X44	Y44	Z44	X45	Y45	Z45	X46	Y46	Z46	X47	Y47	Z47	X48	Y48	Z48	X49	Y49	Z49	X50	Y50	Z50	X51	Y51	Z51	X52	Y52	Z52	X53	Y53	Z53	X54	Y54	Z54	X55	Y55	Z55	X56	Y56	Z56	X57	Y57	Z57	X58	Y58	Z58	X59	Y59	Z59	X60	Y60	Z60	X61	Y61	Z61	X62	Y62	Z62	X63	Y63	Z63	

1378	6.885	-55.85788726806642	1662.037109375	-1131.029663085938	-234.9792480468751	1597.260864257813	-1204.637939453125	-215.1839141845704	1605.991821289063	-1052.589477539063	-278.8870544433594	1479.239868164063	-1130.80810546875	-408.1918945312501	1202.84619140625	-1085.487548828125	-131.5066986083985	1390.341064453125	-1131.046997070313	-203.8511047363282	1482.100830078125	-1256.548095703125	-102.1779022216797	1486.914306640625	-1381.539916992188	-57.662654876709	1494.080078125	-1361.37255859375	-44.39645004272462	1491.619262695313	-1421.142578125	-1.782239079475403	1492.225463867188	-1440.453002929688	37.30940628051759	1417.102172851563	-1420.896362304688	267.7573547363282	1532.5712890625	-1452.943969726563	258.3272399902344	1538.209594726563	-1526.73291015625	332.6055908203126	1576.460327148438	-1457.29052734375	-181.8011779785157	1501.793823242188	-1023.101684570313	-34.6823959350586	1514.908447265625	-916.4158935546877	-17.96455383300782	1534.126342773438	-961.2319335937502	31.79356765747071	1537.165649414063	-928.0793457031252	76.50706481933595	1541.278442382813	-932.9448852539065	99.39984893798831	1459.047729492188	-943.0068359375002	336.5606994628907	1542.525146484375	-1005.367797851563	337.6596374511719	1574.571899414063	-937.5444335937502	417.4234924316407	1563.8359375	-1018.776794433594	-285.2763061523438	980.090270996094	-1166.42724609375	-320.3135681152344	970.8572387695315	-944.7196044921877	-455.4725036621095	1093.678344726563	-1077.853881835938	-472.493865966797	1071.366943359375	-1107.984008789063	-482.7953186035157	1071.120727539063	-1053.653442382813	-352.8448486328126	786.231872558594	-1238.6884765625	-293.6321411132813	726.9739379882814	-1224.8037109375	-253.0421600341797	744.8161621093751	-1210.948974609375	-303.1911621093751	666.8488769531251	-1210.153076171875	-236.9799194335938	510.9506835937501	-1173.679443359375	-241.127914428711	504.1136474609376	-1056.903930664063	-249.4037017822266	325.3076477050782	-1100.699829101563	-300.6542663574219	287.9137268066407	-1162.767700195313	-267.0713806152344	278.3988342285157	-1134.144775390625	-293.5331115722657	208.251449584961	-1095.3779296875	-371.7439575195313	127.6423721313477	-1134.947998046875	-343.0600280761719	137.3126068115235	-1049.173583984375	-443.3319396972657	111.8427658081055	-1096.1630859375	-241.1705780029297	61.46788024902345	-1049.493896484375	-230.1881561279297	55.72834396362306	-1093.78076171875	-272.1635437011719	40.87432479858399	-1151.92724609375	-479.4499816894532	727.8211669921876	-888.7672119140627	-448.3512573242189	669.1749267578126	-882.2513427734377	-415.6870422363282	666.1879882812501	-884.5554199218752	-484.2414855957032	593.6541137695314	-898.605163574219	-507.1163940429689	496.7219848632814	-898.324890136719	-496.4105834960939	465.3197326660157	-1010.0224609375	-635.4602661132814	395.9849853515626	-915.0908203125002	-739.0067749023439	445.3003540039064	-913.0747680664065	-722.3557739257814	401.1402893066407	-911.7197265625002	-755.4390869140626	360.4379272460938	-941.0357666015627	-887.1143798828127	364.7007751464844	-937.8135986328127	-847.6643066406252	348.6103820800782	-1012.6767578125	-951.1572875976565	390.5687255859376	-993.479919433594	-827.7093505859377	210.2718200683594	-994.6107177734377	-828.7576293945315	206.6191711425782	-941.6284179687502	-878.6026000976565	227.6674804687501	-901.153747558594	nan	nan	nan	-4217.016601562501	853.164489746094	-3944.809326171876	
1379	6.890000000000001	-56.70396041870119	1663.962524414063	-1131.010009765625	-235.6557312011719	1599.266967773438	-1204.645263671875	-216.0338592529297	1608.020263671875	-1052.525146484375	-279.3399963378907	1480.926635742188	-1130.899658203125	-407.9369201660157	1204.186401367188	-1085.758056640625	-131.5061798095703	1392.479858398438	-1131.087768554688	-204.4549865722657	1483.964721679688	-1256.712646484375	-102.7832412719727	1488.637939453125	-1381.818603515625	-57.85130310058595	1495.70703125	-1361.699462890625	-45.95983505249024	1494.150634765625	-1421.9697265625	-2.692751169204712	1493.978881835938	-1440.970336914063	36.7649154663086	1419.033081054688	-1421.5166015625	266.8974609375001	1534.5341796875	-1453.389526367188	257.4891967773438	1540.283325195313	-1527.12890625	331.9031677246094	1578.59423828125	-1457.620971679688	-182.5500946044922	1503.760131835938	-1023.08544921875	-34.84422683715821	1516.925170898438	-916.118103027344	-18.71968650817871	1536.189453125	-960.8797607421877	30.99740791320801	1539.281005859375	-927.6882934570315	76.05730438232423	1543.28857421875	-932.7678222656252	98.65550231933597	1461.130249023438	-942.5686035156252	335.6564331054688	1544.62744140625	-1004.368286132813	337.0373840332032	1576.869018554688	-936.7920532226565	416.608123779297	1565.866943359375	-1017.807861328125	-284.0801391601563	981.7088012695315	-1166.668212890625	-319.4650573730469	972.571472167969	-944.6829833984377	-454.8554992675782	1095.012329101563	-1078.008666992188	-471.8174438476564	1072.584350585938	-1108.120971679688	-481.8440551757814	1072.288940429688	-1053.48583984375	-352.4509887695313	787.1042480468752	-1238.771850585938	-293.7057800292969	727.7192382812501	-1224.852416992188	-252.8141174316407	745.0944824218751	-1210.802490234375	-303.5773620605469	667.5636596679689	-1210.2001953125	-237.8700714111329	511.3753051757814	-1173.698120117188	-241.9246673583985	504.6614074707032	-1057.150512695313	-250.0375976562501	325.8924560546876	-1100.974731445313	-301.1465148925782	288.0935974121094	-1163.031860351563	-267.5120239257813	278.6427917480469	-1134.273315429688	-293.7254638671876	208.6265716552735	-1095.531616210938	-371.8415832519532	127.6908874511719	-1135.036010742188	-343.0230712890626	137.4303588867188	-1049.250610351563	-443.3313598632814	111.8858108520508	-1096.180541992188	-241.1477813720704	61.49901199340822	-1049.542236328125	-230.1785125732422	55.84619140625001	-1093.869384765625	-272.3606567382813	40.49008560180665	-1151.540893554688	-478.7021484375001	729.4449462890626	-888.5198364257815	-447.4963684082032	670.8391723632814	-882.1162719726565	-414.7671813964845	667.8358154296876	-884.427429199219	-483.584686279297	595.4000244140626	-898.3684692382815	-506.6343078613282	498.3164672851564	-897.8982543945315	-494.8523864746095	466.2850646972657	-1009.277587890625	-634.6826171875001	397.4711914062501	-914.685974121094	-738.5054321289064	446.3914489746095	-913.1240844726565	-721.8931884765626	402.3040466308595	-911.3701782226565	-754.5229492187501	361.5227966308594	-940.8007812500002	-886.2525024414065	365.5669555664063	-938.1775512695315	-846.6806640625002	349.4960021972657	-1012.75439453125	-950.2605590820315	391.2133789062501	-993.713806152344	-827.0845947265627	211.474594116211	-994.591735839844	-827.7768554687502	207.552474975586	-941.4085083007815	-877.5316162109377	228.4239959716797	-901.3218383789065	nan	nan	nan	-4217.029296875001	853.0977172851565	-3944.679443359376	
1380	6.895	-57.56276702880861	1666.262939453125	-1130.960815429688	-236.1679382324219	1601.136108398438	-1204.749633789063	-216.7555084228516	1609.938232421875	-1052.90380859375	-279.8203125000001	1482.617065429688	-1131.014404296875	-407.7803955078126	1205.343872070313	-1086.079711914063	-131.7656555175782	1394.711791992188	-1131.176513671875	-205.1162719726563	1485.73681640625	-1256.881225585938	-103.3153991699219	1490.217407226563	-1382.24267578125	-59.01628875732423	1497.609741210938	-1362.153442382813	-44.94202041625977	1494.753295898438	-1421.833129882813	-3.286118745803834	1496.031982421875	-1441.52685546875	36.11650085449219	1421.033935546875	-1421.993041992188	266.5477600097657	1536.419555664063	-1453.86083984375	256.7774353027344	1542.285888671875	-1527.534545898438	330.9899597167969	1580.631103515625	-1458.039672851563	-183.2268524169922	1505.789428710938	-1023.077453613281	-35.53257369995118	1518.983642578125	-915.7174072265627	-19.46873664855957	1538.128662109375	-960.6787109375002	30.08904647827149	1541.336669921875	-927.3363037109377	74.84497070312501	1545.369750976563	-932.2994384765627	97.88442230224612	1463.146484375	-942.072937011719	335.6424560546876	1546.435424804688	-1003.68798828125	336.1172485351563	1579.0185546875	-936.0305175781252	416.0232238769532	1568.0595703125	-1016.946960449219	-283.6828613281251	983.351989746094	-1166.571044921875	-318.4991149902344	974.0251464843752	-944.888854980469	-454.1160888671876	1096.109008789063	-1078.181396484375	-471.0698852539064	1073.712524414063	-1108.285400390625	-480.9767150878907	1073.536499023438	-1053.642578125	-352.1577148437501	788.3228149414065	-1238.87109375	-293.8329772949219	728.3925781250001	-1224.972290039063	-252.7600250244141	745.6025390625001	-1210.831298828125	-303.8970031738282	668.3002929687501	-1210.32275390625	-238.8705596923829	511.8190002441407	-1173.84033203125	-243.0407257080079	505.1277160644532	-1057.300659179688	-250.6466217041016	326.1802978515626	-1101.09375	-301.7501525878907	288.8912963867188	-1163.131469726563	-267.8670654296876	278.6303710937501	-1134.555908203125	-293.9500122070313	208.8882293701172	-1095.772094726563	-371.8851013183594	127.7048950195313	-1135.08251953125	-342.9758300781251	137.5055694580078	-1049.379516601563	-443.3140258789064	111.8414306640625	-1096.229614257813	-241.1069793701172	61.50215530395509	-1049.614990234375	-230.1951599121094	55.85490798950197	-1093.810668945313	-272.2695922851563	40.45600891113282	-1151.546508789063	-478.2389526367189	730.8549194335939	-888.2764892578127	-447.0780334472657	672.5568237304689	-881.5860595703127	-414.140350341797	669.5039062500001	-883.9315185546877	-482.8345336914064	596.8711547851564	-898.0410156250002	-506.0223388671876	499.7547607421876	-897.545837402344	-493.9732055664064	467.5247802734376	-1008.836547851563	-633.9483642578126	398.5584106445314	-914.743103027344	-737.8769531250001	447.5660400390626	-913.2136230468752	-721.2183837890626	403.4661560058595	-911.224548339844	-753.7549438476564	362.4365539550782	-940.5100097656252	-885.287048339844	366.4460144042969	-938.3877563476565	-845.561218261719	350.3001098632813	-1012.873168945313	-949.3164672851565	391.805389404297	-994.0344848632815	-825.9517822265627	212.3953552246094	-994.543151855469	-826.749206542969	208.5706634521485	-941.420593261719	-876.4757080078127	229.1170196533204	-901.492614746094	nan	nan	nan	-4216.970214843751	853.083923339844	-3944.701660156251	
1381	6.9	-58.0795021057129	1668.453491210938	-1130.860473632813	-236.8109436035157	1603.30810546875	-1204.856567382813	-217.4103088378907	1612.151611328125	-1052.69140625	-280.4112243652344	1484.415649414063	-1130.987915039063	-407.371307373047	1206.686157226563	-1086.196166992188	-132.3278503417969	1396.662841796875	-1131.142333984375	-205.6939849853516	1487.578491210938	-1257.042724609375	-103.9391250610352	1491.972534179688	-1382.553588867188	-59.6794776916504	1499.501953125	-1362.596313476563	-47.24120330810548	1497.367065429688	-1422.61767578125	-3.935412645339967	1497.566284179688	-1441.974853515625	35.43401718139649	1422.796508789063	-1422.484497070313	265.9181823730469	1538.400756835938	-1454.21240234375	256.0072021484376	1544.336181640625	-1527.979248046875	330.3049926757813	1582.5869140625	-1458.442504882813	-183.8483123779297	1507.716552734375	-1023.0546875	-36.74164581298829	1520.894897460938	-915.7120361328127	-20.29313659667969	1540.215576171875	-960.3920898437502	29.59399414062501	1543.154174804688	-927.1724853515627	74.15782928466798	1547.54052734375	-931.7969970703127	97.12379455566409	1465.282470703125	-941.740661621094	334.4088745117188	1548.91552734375	-1002.859802246094	335.4213562011719	1581.2314453125	-935.2468872070315	415.7151794433595	1570.29443359375	-1016.114624023438	-282.6133117675782	984.3027954101565	-1166.311279296875	-317.7424621582032	975.7338867187502	-944.8349609375002	-453.2174072265626	1097.3603515625	-1078.433959960938	-470.1924438476564	1074.921997070313	-1108.394653320313	-480.2635803222657	1074.724487304688	-1053.796020507813	-352.1807250976563	789.5599365234377	-1238.821533203125	-293.8821105957032	729.0554809570314	-1225.067749023438	-252.6505889892579	745.9332275390626	-1210.912963867188	-304.2602844238282	668.9401245117189	-1210.54150390625	-240.1052551269532	512.3219604492189	-1174.02490234375	-244.2585449218751	505.5841674804689	-1057.390258789063	-251.3371276855469	326.4980163574219	-1101.264770507813	-302.3955688476563	289.1812438964844	-1163.230834960938	-268.8617248535157	278.9564514160157	-1134.659057617188	-294.2731628417969	209.0898742675782	-1095.960205078125	-371.9291381835938	127.6933898925782	-1135.121215820313	-342.6068115234376	137.5066223144532	-1049.8623046875	-443.3282775878907	111.8656768798828	-1096.207153320313	-241.1368103027344	61.5568313598633	-1049.615356445313	-230.1501007080079	55.86190795898439	-1093.891479492188	-272.1185913085938	40.65389633178712	-1151.904418945313	-477.2396850585939	732.6193237304689	-888.206237792969	-446.2071533203126	674.0070800781251	-881.4248657226565	-413.6309814453126	670.9646606445314	-883.6486816406252	-482.2397766113282	598.6780395507814	-897.7767333984377	-505.4214477539064	501.4021911621095	-897.2366333007815	-493.7162170410157	469.5891113281251	-1008.75146484375	-633.2529296875001	400.1812744140626	-914.4561157226565	-737.1298217773439	448.5518188476564	-913.1843261718752	-720.4005737304689	404.7385253906251	-911.3005371093752	-752.9592895507814	363.7366027832032	-940.1102294921877	-884.6046142578127	367.3180236816407	-938.592712402344	-844.658386230469	351.0666809082032	-1012.891357421875	-948.4624023437502	392.5281066894532	-994.5417480468752	-824.3164062500002	212.9692687988282	-994.6633911132815	-825.6922607421877	209.463851928711	-941.5889892578127	-875.5422363281252	230.1374664306641	-901.5376586914065	nan	nan	nan	-4216.794921875001	853.1473388671877	-3944.665527343751	
